<?xml version="1.0" encoding="UTF-8"?>
<svg width="241px" height="71px" viewBox="0 0 241 71" version="1.1" xmlns="http://www.w3.org/2000/svg" xmlns:xlink="http://www.w3.org/1999/xlink">
    <title>25F62C06-9A73-40CD-9688-9248ADFFAA4D</title>
    <g id="V5" stroke="none" stroke-width="1" fill="none" fill-rule="evenodd">
        <g id="(D)-Inicio---2-comunicaciones" transform="translate(-600.000000, -2771.000000)">
            <g id="Footer" transform="translate(0.000000, 2665.000000)">
                <g id="content" transform="translate(0.000000, 60.000000)">
                    <g id="HB" transform="translate(591.000000, 46.000000)">
                        <g id="Group-14" transform="translate(9.000000, 0.000000)">
                            <path d="M232.586446,34.6597698 C235.019263,34.6597698 236.978549,35.3483547 238.465731,36.7252405 C240.154958,38.33762 241,40.5377397 241,43.3255995 L241,46.4489456 L235.424781,46.4489456 L235.424781,43.3255995 C235.424781,42.0830787 235.188158,41.2430847 234.715197,40.8061855 C234.275672,40.4030906 233.566089,40.2014012 232.586446,40.2014012 C231.639953,40.2014012 230.94723,40.4030906 230.508563,40.8061855 C230.001595,41.277173 229.748111,42.1163149 229.748111,43.3255995 L229.748111,62.0670966 C229.748111,63.2763813 230.001595,64.1163753 230.508563,64.5862266 C230.94723,64.9890374 231.639953,65.1907268 232.586446,65.1907268 C233.566089,65.1907268 234.275672,64.9890374 234.715197,64.5862266 C235.188158,64.1498955 235.424781,63.3101856 235.424781,62.0670966 L235.424781,55.4673058 L232.637314,55.4673058 L232.637314,49.9253904 L241,49.9253904 L241,62.0670966 C241,64.8555246 240.154958,67.0550762 238.465731,68.6671716 C236.978549,70.0446255 235.019263,70.7326422 232.586446,70.7326422 C230.221071,70.7326422 228.260928,70.0446255 226.70716,68.6671716 C225.017076,66.9877516 224.172891,64.787632 224.172891,62.0670966 L224.172891,43.3255995 C224.172891,40.604496 225.017076,38.4052286 226.70716,36.7252405 C228.260928,35.3483547 230.221071,34.6597698 232.586446,34.6597698 Z M207.701175,35.0628647 L216.21618,52.8978955 L216.21618,35.0628647 L221.791399,35.0628647 L221.791399,70.3295474 L218.547547,70.3295474 L210.032828,52.4442362 L210.032828,70.3295474 L204.457608,70.3295474 L204.457608,35.0628647 L207.701175,35.0628647 Z M201.619845,35.0628647 L201.619845,70.3295474 L196.044626,70.3295474 L196.044626,35.0628647 L201.619845,35.0628647 Z M182.157789,35.0628647 L182.157789,49.3711704 L188.341427,35.0628647 L194.37246,35.0628647 L187.22604,51.7891715 L194.37246,70.3295474 L188.391724,70.3295474 L184.083639,59.0440271 L182.157789,63.4275063 L182.157789,70.3295474 L176.58257,70.3295474 L176.58257,35.0628647 L182.157789,35.0628647 Z M159.654668,35.0628647 L168.169673,52.8978955 L168.169673,35.0628647 L173.744892,35.0628647 L173.744892,70.3295474 L170.50104,70.3295474 L161.98632,52.4442362 L161.98632,70.3295474 L156.411101,70.3295474 L156.411101,35.0628647 L159.654668,35.0628647 Z M125.190045,35.0626375 C127.588855,35.0626375 129.531566,35.7177021 131.018748,37.0275474 C131.89694,37.8007851 132.53908,38.7407717 132.944883,39.8492116 C133.383551,40.9244153 133.603599,42.166652 133.603599,43.577058 L133.603599,46.8518133 C133.603599,49.2374304 132.927451,51.0512153 131.576298,52.293452 C133.434133,53.6030133 134.363765,55.7190483 134.363765,58.6412731 L134.363765,61.8657481 C134.363765,63.3102424 134.144003,64.535719 133.704764,65.5433141 C133.299532,66.651754 132.657106,67.5925928 131.778914,68.3646942 C130.325739,69.6745395 128.383029,70.3296042 125.950497,70.3296042 L117.536942,70.3296042 L117.536942,35.0626375 L125.190045,35.0626375 Z M147.794988,35.0627795 L154.890826,70.3294621 L149.214156,70.3294621 L148.200505,64.7372664 L141.814252,64.7372664 L140.800887,70.3294621 L135.123931,70.3294621 L142.219769,35.0627795 L147.794988,35.0627795 Z M125.950497,55.5176429 L123.112162,55.5176429 L123.112162,64.7876888 L125.950497,64.7876888 C126.964147,64.7876888 127.673731,64.6036116 128.079248,64.2334688 C128.551923,63.7974219 128.788546,63.0077082 128.788546,61.8657481 L128.788546,58.6412731 C128.788546,57.4319885 128.535348,56.5928467 128.02838,56.1221432 C127.588855,55.7190483 126.895846,55.5176429 125.950497,55.5176429 Z M145.007236,46.5494211 L142.777605,59.195351 L147.237438,59.195351 L145.007236,46.5494211 Z M125.190045,40.6045528 L123.112162,40.6045528 L123.112162,49.9754435 L125.190045,49.9754435 C126.13568,49.9754435 126.828689,49.7740381 127.268213,49.3709432 C127.774896,48.8672876 128.02838,48.0281458 128.02838,46.8518133 L128.02838,43.577058 C128.02838,42.435666 127.791756,41.6297603 127.318796,41.1587728 C126.913564,40.7897663 126.203695,40.6045528 125.190045,40.6045528 Z M25.2642965,34.4998745 L25.2642965,61.5844982 C25.2642965,62.83128 25.5009197,63.6738307 25.9758807,64.111298 C26.415977,64.5155291 27.1278469,64.7177867 28.1109191,64.7177867 C29.0594122,64.7177867 29.7544214,64.5155291 30.1953749,64.111298 C30.7034861,63.6397423 30.9578274,62.7974757 30.9578274,61.5844982 L30.9578274,34.4998745 L36.5496217,34.4998745 L36.5496217,61.5844982 C36.5496217,64.3132715 35.7020078,66.5199248 34.007923,68.2041739 C32.4487249,69.5858888 30.4828664,70.2758941 28.1109191,70.2758941 C25.6709569,70.2758941 23.7050984,69.5858888 22.2142009,68.2041739 C20.5192588,66.5872493 19.6725022,64.3811642 19.6725022,61.5844982 L19.6725022,34.4998745 L25.2642965,34.4998745 Z M89.112031,34.4996189 L97.6521844,52.3880548 L97.6521844,34.4996189 L103.243979,34.4996189 L103.243979,69.8716914 L99.99041,69.8716914 L91.4502566,51.9332592 L91.4502566,69.8716914 L85.8584623,69.8716914 L85.8584623,34.4996189 L89.112031,34.4996189 Z M77.2167725,34.4997609 L84.3337575,69.8718334 L78.6402266,69.8718334 L77.6237186,64.2625935 L71.2183178,64.2625935 L70.201524,69.8718334 L64.5079931,69.8718334 L71.6252639,34.4997609 L77.2167725,34.4997609 Z M42.5478192,34.4997609 L51.0879726,54.1062502 L59.6284117,34.4997609 L62.8308264,34.4997609 L62.8308264,69.8718334 L57.2393178,69.8718334 L57.2393178,52.2365036 L52.7148998,64.3131579 L49.4613311,64.3131579 L44.9371989,52.2365036 L44.9371989,69.8718334 L39.3451188,69.8718334 L39.3451188,34.4997609 L42.5478192,34.4997609 Z M5.75991947,34.2456606 L5.75991947,48.7306247 L11.6246397,48.7306247 L11.6246397,34.2456606 L17.3851479,34.2456606 L17.3851479,69.6983042 L11.6246397,69.6983042 L11.6246397,54.3016771 L5.75991947,54.3016771 L5.75991947,69.6983042 L0,69.6983042 L0,34.2456606 L5.75991947,34.2456606 Z M74.4210182,46.021059 L72.1842433,58.7042021 L76.6577931,58.7042021 L74.4210182,46.021059 Z" id="Shape" fill="#EE2527"></path>
                            <g id="Logo" fill-rule="nonzero">
                                <g>
                                    <path d="M7.2990712,18.240211 C7.33403923,18.240211 7.36333675,18.2629178 7.37365704,18.2938605 L7.3776311,18.3183858 L7.3776311,22.3407809 C7.3776311,23.4268095 7.88649844,24.0266509 8.8100203,24.0266509 C9.72152077,24.0266509 10.2192094,23.493282 10.2548249,22.4866852 L10.256881,22.3684427 L10.256881,18.3183858 C10.256881,18.2842294 10.2791849,18.2546914 10.3094275,18.2442424 L10.3333735,18.240211 L11.508228,18.240211 C11.5441411,18.240211 11.5738166,18.2629178 11.5842504,18.2938605 L11.5882646,18.3183858 L11.5882646,22.3407809 C11.5882646,24.1276768 10.5427681,25.1968678 8.79732075,25.1968678 C7.13094411,25.1968678 6.11601095,24.2048993 6.06236692,22.5341889 L6.06012843,22.3933985 L6.06012843,18.3183858 C6.06012843,18.2842294 6.0828104,18.2546914 6.11305301,18.2442424 L6.13691632,18.240211 L7.2990712,18.240211 Z M2.48999443,18.1488667 C3.16897643,18.1488667 3.85327451,18.289882 4.4218001,18.5499637 C4.44527948,18.5607878 4.46078472,18.5831128 4.46545014,18.6083129 L4.46639614,18.6341519 L4.29982552,19.7231873 C4.29391877,19.7505485 4.27915186,19.7718962 4.25818287,19.7815177 C4.24725536,19.7899365 4.23485117,19.7932439 4.22097028,19.7932439 L4.2036561,19.7905379 L4.2036561,19.7905379 L4.18700642,19.7815177 C3.56295728,19.4513795 2.99354568,19.290219 2.45366786,19.290219 C1.88041686,19.290219 1.44567937,19.5957022 1.44567937,20.0031132 C1.44567937,20.4310076 1.72152965,20.6067877 2.6501397,20.9369291 L2.77499558,20.9808998 C4.0904309,21.4475434 4.80160474,21.9159909 4.80160474,23.0537352 C4.80160474,24.3099444 3.80631577,25.1551344 2.32312848,25.1551344 C1.61431735,25.1551344 0.804205296,24.9750317 0.0463680591,24.6497042 C0.0208951609,24.6386545 0.00505765992,24.6157658 0.000599903197,24.5908053 L0,24.565516 L0.169228653,23.4996324 C0.173363384,23.4767813 0.188130288,23.4551328 0.211166649,23.4419033 C0.221503478,23.4358898 0.232135644,23.4319811 0.24542585,23.4319811 L0.26355222,23.4349878 L0.26355222,23.4349878 L0.282343097,23.4443086 C0.945967519,23.7957946 1.76966512,24.0261097 2.37599398,24.0261097 C3.10695545,24.0261097 3.57477081,23.6995795 3.57477081,23.1962539 C3.57477081,22.7178158 3.29517666,22.5207344 2.45934211,22.2221634 L2.33612335,22.1787786 C0.93297265,21.6787604 0.219436112,21.2271505 0.219436112,20.1468347 C0.219436112,18.9712057 1.15388545,18.1488667 2.48999443,18.1488667 Z M27.1182574,18.2401809 C28.7119011,18.2401809 29.6622987,19.034858 29.6622987,20.3713467 C29.6622987,21.2421213 29.2352381,21.9038645 28.4532969,22.2538042 L28.3391846,22.3016634 L30.0574609,24.7401164 C30.0745905,24.7629675 30.0772485,24.7879233 30.0680931,24.8149838 C30.0610049,24.8306188 30.0490602,24.8446501 30.0351465,24.8535144 L30.0131602,24.8624901 L28.8012777,25.1409878 L28.8012777,25.1409878 L28.7954817,25.1412134 C28.778549,25.1412134 28.7627977,25.137338 28.7494528,25.1280728 L28.7313934,25.1099434 L26.924811,22.4874789 L26.3302957,22.4874789 L26.3302957,24.9833603 C26.3302957,25.0175167 26.3089368,25.0493639 26.2787698,25.0607366 L26.2546892,25.0651432 L25.0901716,25.0651432 C25.05733,25.0651432 25.0295919,25.0401273 25.0198103,25.0082608 L25.0160417,24.9833603 L25.0160417,18.3186564 C25.0160417,18.2842595 25.0372116,18.2546733 25.0666981,18.2442147 L25.0901716,18.2401809 L27.1182574,18.2401809 Z M23.4259125,18.2400907 C23.4585179,18.2400907 23.488666,18.2627975 23.499421,18.2938942 L23.5035864,18.3185662 L23.5035864,19.3558859 C23.5035864,19.3926882 23.4799594,19.4217933 23.4496412,19.4319632 L23.4259125,19.4358648 L20.5980515,19.4358648 L20.5980515,20.922389 L22.8429154,20.922389 C22.8725969,20.922389 22.8977929,20.9381179 22.9116507,20.9618382 L22.9214753,20.9879356 L23.0877506,22.0279613 C23.09159,22.0502111 23.0859785,22.0733629 23.070621,22.0929066 C23.0609733,22.1025281 23.0476502,22.1100115 23.0333646,22.1139313 L23.0115534,22.1169603 L20.5980515,22.1169603 L20.5980515,23.869279 L23.5159906,23.869279 C23.549541,23.869279 23.577421,23.8921782 23.5872309,23.9224282 L23.5910065,23.9462511 L23.5910065,24.9844728 C23.5910065,25.0179076 23.5698367,25.0498029 23.5398965,25.0612237 L23.5159906,25.0656544 L19.3564506,25.0656544 C19.3238454,25.0656544 19.2940753,25.040446 19.2834715,25.0089644 L19.2793675,24.9844728 L19.2793675,18.3185662 C19.2793675,18.2841693 19.3026165,18.2545831 19.3327834,18.2441245 L19.3564506,18.2400907 L23.4259125,18.2400907 Z M45.5940988,18.2400907 C45.6293031,18.2400907 45.6592149,18.2627975 45.6697715,18.2938942 L45.6738401,18.3185662 L45.6738401,19.3558859 C45.6738401,19.3926882 45.6509691,19.4217933 45.61929,19.4319632 L45.5940988,19.4358648 L42.7683051,19.4358648 L42.7683051,20.922389 L45.0161224,20.922389 C45.0442386,20.922389 45.0719767,20.940285 45.0839131,20.9666865 L45.0896616,20.9879356 L45.2582996,22.0279613 C45.2627296,22.0502111 45.2559368,22.0733629 45.242942,22.0929066 C45.231916,22.1025281 45.2190524,22.1100115 45.2047887,22.1139313 L45.1823977,22.1169603 L42.7683051,22.1169603 L42.7683051,23.869279 L45.6862443,23.869279 C45.7193221,23.869279 45.7497538,23.8921782 45.7606033,23.9224282 L45.7648042,23.9462511 L45.7648042,24.9844728 C45.7648042,25.0179076 45.7409881,25.0498029 45.7102919,25.0612237 L45.6862443,25.0656544 L41.528181,25.0656544 C41.4948669,25.0656544 41.4664671,25.040446 41.4564398,25.0089644 L41.4525744,24.9844728 L41.4525744,18.3185662 C41.4525744,18.2841693 41.4743113,18.2545831 41.5043271,18.2441245 L41.528181,18.2400907 L45.5940988,18.2400907 Z M61.7867087,18.2401341 C61.8197866,18.2401341 61.8494621,18.2628409 61.8600092,18.2939377 L61.8640873,18.3186096 L61.8640873,19.3559293 C61.8640873,19.3927316 61.8410273,19.4218367 61.8106335,19.4320067 L61.7867087,19.4359082 L58.9550083,19.4359082 L58.9550083,20.9224324 L61.2025302,20.9224324 C61.2356081,20.9224324 61.2618813,20.9403284 61.2731845,20.9667299 L61.2787274,20.987979 L61.4497281,22.0280048 C61.4523861,22.0502545 61.4441167,22.0734063 61.4314171,22.09295 C61.4217694,22.1025715 61.4081839,22.1100549 61.3939858,22.1139748 L61.3726449,22.1170038 L58.9550083,22.1170038 L58.9550083,23.8693224 L61.8776728,23.8693224 C61.9107507,23.8693224 61.9398592,23.8922216 61.9501795,23.9224717 L61.9541654,23.9462946 L61.9541654,24.9845163 C61.9541654,25.017951 61.9316724,25.0498464 61.9015054,25.0612671 L61.8776728,25.0656978 L57.7196095,25.0656978 C57.6834602,25.0656978 57.6552495,25.0404894 57.6454112,25.0090078 L57.6416403,24.9845163 L57.6416403,18.3186096 C57.6416403,18.2842127 57.6626211,18.2546265 57.694149,18.244168 L57.7196095,18.2401341 L61.7867087,18.2401341 Z M15.5758293,18.240211 C17.0643327,18.240211 17.9872638,19.0508237 17.9872638,20.3563432 C17.9872638,21.6852786 17.1138662,22.4628986 15.5779285,22.5088067 L15.4319997,22.5109614 L14.6830226,22.5109614 L14.6830226,24.9851944 C14.6830226,25.0181481 14.6610967,25.0495624 14.6307029,25.0608099 L14.60653,25.0651733 L13.4428984,25.0651733 C13.4098206,25.0651733 13.3827913,25.0403498 13.3733026,25.00933 L13.3696546,24.9851944 L13.3696546,18.3183858 C13.3696546,18.2842294 13.3900684,18.2546914 13.4194037,18.2442424 L13.4428984,18.240211 L15.5758293,18.240211 Z M39.240434,18.240211 C39.275402,18.240211 39.3054556,18.2629178 39.3160783,18.2938605 L39.3201752,18.3183858 L39.3201752,24.9848938 C39.3201752,25.018088 39.2971152,25.0495503 39.2655117,25.0608075 L39.240434,25.0651733 L38.0661702,25.0651733 C38.0333286,25.0651733 38.0023772,25.0403498 37.9913103,25.0091761 L37.9870196,24.9848938 L37.9870196,18.3183858 C37.9870196,18.2842294 38.0114027,18.2546914 38.0421746,18.2442424 L38.0661702,18.240211 L39.240434,18.240211 Z M53.8404666,18.2401508 C53.8730719,18.2401508 53.9013299,18.2624728 53.9113288,18.2935695 L53.9151871,18.3183257 L53.9151871,23.8792613 L56.3213056,23.8792613 C56.3496582,23.8792613 56.3772545,23.8985043 56.3891246,23.9248288 L56.3948445,23.9457099 L56.5640735,24.9713034 C56.5649591,24.9956578 56.5605294,25.0179076 56.5454672,25.0356473 C56.5356225,25.0490773 56.5222338,25.0575629 56.5086263,25.0617278 L56.4884666,25.0648125 L52.6774257,25.0648125 C52.6438753,25.0648125 52.6152393,25.0401814 52.6051269,25.0090846 L52.6012285,24.9848336 L52.6012285,18.3183257 C52.6012285,18.2836882 52.6231544,18.2544388 52.653397,18.2441245 L52.6774257,18.2401508 L53.8404666,18.2401508 Z M48.7325373,18.2401508 C48.7682141,18.2401508 48.7963303,18.2624728 48.8061497,18.2935695 L48.8099158,18.3183257 L48.8099158,23.8792613 L51.2113089,23.8792613 C51.2405474,23.8792613 51.264802,23.8961741 51.2782168,23.9199789 L51.2878014,23.9457099 L51.4564394,24.9713034 C51.4596881,24.9956578 51.4537814,25.0179076 51.4399005,25.0356473 C51.429859,25.0490773 51.4161422,25.0575629 51.4019003,25.0617278 L51.3805376,25.0648125 L47.5700871,25.0648125 C47.5372455,25.0648125 47.5091293,25.0401814 47.4991965,25.0090846 L47.4953665,24.9848336 L47.4953665,18.3183257 C47.4953665,18.2836882 47.5169144,18.2544388 47.5465522,18.2441245 L47.5700871,18.2401508 L48.7325373,18.2401508 Z M31.7421868,18.2418346 C31.7643372,18.2418346 31.788481,18.2546883 31.8032802,18.2748146 L31.8145446,18.2971583 L33.6181736,23.2916272 L35.4566525,18.2998644 C35.4641836,18.2752844 35.4813501,18.2581461 35.5046634,18.2511132 L35.5298963,18.2475474 L36.7020927,18.2475474 C36.7274918,18.2475474 36.7537769,18.2586723 36.7667717,18.2806213 C36.7768132,18.2950536 36.7812105,18.3122922 36.779876,18.3295753 L36.7735645,18.3551881 L34.1790204,25.0087672 C34.1708248,25.0308666 34.1529938,25.0468774 34.1312587,25.0535016 L34.1084347,25.0568747 L33.0307464,25.0568747 C33.006381,25.0568747 32.9863349,25.0463888 32.9724771,25.0287149 L32.9607513,25.0087672 L30.4072592,18.3470699 C30.3989897,18.3251209 30.4010571,18.3022698 30.414052,18.2815234 C30.4203525,18.2676924 30.4305909,18.2572023 30.4438045,18.250053 L30.4657361,18.2418346 L31.7421868,18.2418346 Z M27.1765009,19.4248304 L26.3302957,19.4239281 L26.3302957,21.4077644 L27.1052625,21.4077644 C27.9035611,21.4077644 28.344796,21.0436501 28.344796,20.3827723 C28.344796,19.6238 27.7260994,19.4389194 27.1765009,19.4248304 Z M15.4582847,19.3962963 L14.6830226,19.3962963 L14.6830226,21.3711125 L15.4319997,21.3711125 C16.2867078,21.3711125 16.6978182,21.0463863 16.6978182,20.3828023 C16.6978182,19.6033718 16.0799353,19.4118399 15.5296248,19.3972321 L15.4582847,19.3962963 Z" id="Shape" fill="#3C3C3C"></path>
                                    <path d="M61.8078284,8.05021362 C58.8145783,7.57034049 55.9004787,6.57270956 54.0023413,5.65325341 C52.9022074,8.58541043 50.7807948,11.7289401 48.5610346,13.8910752 C48.4396506,13.9957092 48.5359308,14.1782174 48.7346933,14.037202 C53.4769351,10.6976339 58.4194159,9.09354676 61.8122587,8.42334804 C61.9980261,8.38095321 61.9997984,8.10283125 61.8078284,8.05021362" id="Path" fill="#821642"></path>
                                    <path d="M45.5346385,0.272266855 C46.6589902,3.23419045 47.9457777,9.23921917 44.9306724,15.8350691 C44.8943458,15.9207608 45.0024395,15.9959289 45.1167353,15.9207608 C48.7299,13.512375 51.8802702,8.89404728 52.9169065,5.1212103 C49.3199853,3.24591667 47.156044,1.30928589 45.8471061,0.0669076235 C45.673152,-0.103272943 45.4587367,0.0828432575 45.5346385,0.272266855" id="Path" fill="#EE2527"></path>
                                </g>
                            </g>
                        </g>
                    </g>
                </g>
            </g>
        </g>
    </g>
</svg>