<svg width="110" height="27" viewBox="0 0 110 27" fill="none" xmlns="http://www.w3.org/2000/svg">
<path d="M110 6.18502C109.009 5.64283 107.89 5.37625 106.761 5.41302H93.681V11.758H104.196C105.366 11.7685 106.532 11.6341 107.669 11.358V17.613C106.53 17.2377 105.337 17.0515 104.138 17.062H93.681V23.442C93.6159 24.4681 93.8619 25.49 94.387 26.374H81.359C81.9607 25.5195 82.2525 24.485 82.186 23.442V2.88502C82.264 1.85435 81.9687 0.829985 81.354 -0.000976562H110V6.18502ZM65.575 17.056H56.063V23.437C56.0021 24.4808 56.2647 25.518 56.815 26.407H43.746C44.3144 25.5298 44.5864 24.4933 44.522 23.45V2.90002C44.5944 1.87383 44.3212 0.852936 43.746 2.28882e-05H65.575C71.746 2.28882e-05 76.086 3.04002 76.086 8.54202C76.086 14.044 71.586 17.056 65.575 17.056ZM35.91 2.87002L25.319 15.749V23.438C25.2582 24.4813 25.5193 25.518 26.067 26.408H13.005C13.5704 25.5257 13.8421 24.4871 13.781 23.441V15.749L3.308 2.99202C2.41978 1.78056 1.29427 0.762557 0 2.28882e-05H13.281C13.7267 1.19286 14.3221 2.32425 15.053 3.36702L19.487 10.012C19.5399 10.0167 19.5931 10.0167 19.646 10.012L24.107 3.36702C24.8605 2.33947 25.4551 1.20444 25.871 2.28882e-05H39.202C37.895 0.68562 36.7674 1.6687 35.91 2.87002ZM59.801 4.88502H56.085V12.25H59.768C62.396 12.25 64.582 11.108 64.582 8.53802C64.582 5.90702 62.421 4.88502 59.801 4.88502Z" fill="#FFFFFF"/>
<path d="M110 6.18502C109.009 5.64283 107.89 5.37625 106.761 5.41302H93.681V11.758H104.196C105.366 11.7685 106.532 11.6341 107.669 11.358V17.613C106.53 17.2377 105.337 17.0515 104.138 17.062H93.681V23.442C93.6159 24.4681 93.8619 25.49 94.387 26.374H81.359C81.9607 25.5195 82.2525 24.485 82.186 23.442V2.88502C82.264 1.85435 81.9687 0.829985 81.354 -0.000976562H110V6.18502ZM65.575 17.056H56.063V23.437C56.0021 24.4808 56.2647 25.518 56.815 26.407H43.746C44.3144 25.5298 44.5864 24.4933 44.522 23.45V2.90002C44.5944 1.87383 44.3212 0.852936 43.746 2.28882e-05H65.575C71.746 2.28882e-05 76.086 3.04002 76.086 8.54202C76.086 14.044 71.586 17.056 65.575 17.056M35.91 2.87002L25.319 15.749V23.438C25.2582 24.4813 25.5193 25.518 26.067 26.408H13.005C13.5704 25.5257 13.8421 24.4871 13.781 23.441V15.749L3.308 2.99202C2.41978 1.78056 1.29427 0.762557 0 2.28882e-05H13.281C13.7267 1.19286 14.3221 2.32425 15.053 3.36702L19.487 10.012C19.5399 10.0167 19.5931 10.0167 19.646 10.012L24.107 3.36702C24.8605 2.33947 25.4551 1.20444 25.871 2.28882e-05H39.202C37.895 0.68562 36.7674 1.6687 35.91 2.87002M59.801 4.88502H56.085V12.25H59.768C62.396 12.25 64.582 11.108 64.582 8.53802C64.582 5.90702 62.421 4.88502 59.801 4.88502" fill="#FFFFFF"/>
</svg>
