<svg xmlns="http://www.w3.org/2000/svg" width="190" height="28" viewBox="0 0 190 28">
    <path fill="#FFF" fill-rule="evenodd" d="M124.429 6.167c2.3 0 3.744-1.08 3.744-3.083 0-1.966-1.443-3.084-3.744-3.084-2.3 0-3.666 1.118-3.666 3.084 0 2.004 1.365 3.083 3.666 3.083zm51.98 9.397c0-1.293-1.636-2.823-4.563-2.823-2.86 0-4.524 1.504-4.524 2.823h9.086zm-4.563-7.833c6.122 0 10.645 3.425 10.412 10.597v.811h-14.936c0 2.317 1.628 3.816 4.528 3.816 2.288 0 4.02-1.088 4.456-2.28h5.85c-.39 2.813-3.481 7.29-10.306 7.29-7.565 0-10.377-4.855-10.377-10.368 0-6.166 4.25-9.866 10.373-9.866zM52.699 15.564c0-1.293-1.635-2.823-4.562-2.823-2.861 0-4.524 1.504-4.524 2.823h9.086zM48.137 7.73c6.122 0 10.645 3.425 10.412 10.597v.811H43.613c0 2.317 1.628 3.816 4.528 3.816 2.287 0 4.02-1.088 4.456-2.28h5.85c-.39 2.813-3.482 7.29-10.306 7.29-7.565 0-10.378-4.855-10.378-10.368 0-6.166 4.251-9.866 10.374-9.866zM147.62 22.57c3.354 0 5.226-1.465 5.226-4.741s-1.872-4.703-5.226-4.703c-3.353 0-5.226 1.427-5.226 4.703 0 3.276 1.873 4.741 5.226 4.741zM136.156 0h6.24v9.31l-1.17 3.47h1.56c1.013-2.583 2.885-5.05 7.76-5.05 5.693 0 8.54 4.587 8.54 10.099 0 5.512-2.847 10.137-8.54 10.137-4.875 0-6.747-2.467-7.76-5.05h-1.56l1.17 3.47v1.195h-6.24V0zm-19.034 22.227h4.611l-.02-8.68-4.596-.032V8.12l7.41.01c2.183-.115 3.392 1.08 3.392 3.239l.02 10.859h5.472v5.396h-16.289v-5.396zm-17.95-.002v5.397l-9.137-.003c-2.145.077-3.315-1.156-3.315-3.276V13.512l-2.744.017V8.133l2.744-.017V.286h6.24v7.83h6.22v5.396h-6.22v8.698l6.211.015zm-29.89.38c3.432 0 5.694-1.427 5.694-3.817l-5.03.694c-1.872.27-2.808.54-2.808 1.657 0 1.118 1.092 1.465 2.144 1.465zm-.506-6.438l6.2-.848c0-1.58-1.248-2.544-3.938-2.544-2.496 0-3.9 1.041-3.9 2.814h-5.85c0-4.934 4.251-7.824 9.75-7.824 5.42 0 10.178 2.582 10.178 8.98v5.473h2.76v5.397h-4.242c-1.872 0-2.925-1.041-2.925-2.891v-.385l.975-2.313h-1.56c-.74 3.238-2.652 5.974-8.15 5.974-6.123 0-7.176-3.7-7.176-5.704 0-3.354 2.028-5.32 7.878-6.129zm-45.07-4.81c0-2.12 1.21-3.276 3.354-3.237l9.101-.004.003 5.427h-6.218V27.58h-6.24V11.358zm78.212 0c0-2.12 1.209-3.276 3.354-3.237l9.1-.004.003 5.427h-6.218V27.58h-6.239V11.358zm-91.155-3.62c5.382 0 10.295 2.89 10.568 8.44h-6.24c-.233-1.734-1.832-3.045-4.328-3.045-2.964 0-4.523 1.735-4.523 4.703 0 3.006 1.56 4.74 4.523 4.74 2.496 0 4.095-1.31 4.329-3.044h6.24c-.274 5.55-5.187 8.44-10.569 8.44C4.484 27.971 0 24.35 0 17.835 0 11.359 4.484 7.736 10.763 7.736zM190 5.05V8.12h-.93v-2.02l.233-.68h-.279l-.409 2.7h-1.896l-.418-2.7h-.27l.224.68v2.02h-.93V5.05h1.878l.371 2.7h.186l.372-2.7H190zm-4.907.827h-.92v2.24h-.93v-2.24h-.938v-.827h2.788v.827z"/>
</svg>
