<svg width="158" height="32" viewBox="0 0 158 32" fill="none" xmlns="http://www.w3.org/2000/svg">
<path d="M26.9041 9.32343V25.1182C26.9041 26.1272 26.3049 27.0399 25.3785 27.4411L15.2138 31.843L26.9041 9.32343Z" fill="white"/>
<path d="M0 9.32343V25.1182C0 26.1272 0.599165 27.0399 1.52534 27.4411L11.6903 31.843L0 9.32343Z" fill="white"/>
<path d="M13.4464 0.156935V26.8894L20.7553 11.8119C21.1762 10.9432 21.0665 9.91025 20.4721 9.14969L13.4464 0.156935Z" fill="#3F6AA4"/>
<path d="M13.4466 0.156935V26.8894L6.2445 11.8119C5.82334 10.9432 5.93331 9.91025 6.52747 9.14969L13.4466 0.156935Z" fill="#5596CC"/>
<path d="M53.2943 10.481L46.4226 27.582H41.6654L34.7624 10.481H39.831L44.0284 23.6331L48.1951 10.481H53.2943Z" fill="white"/>
<path d="M58.3905 17.664H65.8526C65.9146 15.6432 65.0441 13.4042 62.2458 13.4042C59.4472 13.4042 58.3905 15.8296 58.3905 17.664ZM53.6022 19.0013C53.6022 14.0574 56.4313 9.98406 62.1524 9.98406C67.998 9.98406 70.7346 13.9949 69.7393 20.4001H58.3905C58.732 22.7324 60.0696 24.4423 62.6812 24.4423C64.702 24.4423 66.4436 23.6963 67.936 22.7013L69.8013 25.8416C67.8112 27.2409 65.7287 28.0803 62.6812 28.0803C57.1776 28.0803 53.6022 24.4735 53.6022 19.0013Z" fill="white"/>
<path d="M84.8501 10.9784L82.8288 15.1449C82.2072 14.8028 81.5853 14.523 80.7454 14.523C78.7556 14.523 77.7609 16.9482 77.6056 19.0007V27.582H73.1593V10.481H76.5794L77.3566 12.8128C78.1652 11.2582 79.44 9.9834 81.43 9.9834C82.953 9.9834 84.2592 10.6366 84.8501 10.9784Z" fill="white"/>
<path d="M91.5025 27.5837H86.9937V10.4827H91.5025V27.5837ZM89.2018 2.97524C90.6942 2.97524 91.7514 3.98766 91.7514 5.4919C91.7514 6.85136 90.7875 8.0663 89.2018 8.0663C87.6781 8.0663 86.6522 6.96713 86.6522 5.4919C86.6522 3.95865 87.6467 2.97524 89.2018 2.97524Z" fill="white"/>
<path d="M106.209 23.8218L106.147 27.4595C101.173 29.2319 96.3224 27.4595 96.3224 20.1527V14.1204H93.7414V10.4827H96.3224V5.13479H100.862V10.4827H105.277L104.935 14.1204H100.862V20.557C100.862 25.0032 103.753 24.6609 106.209 23.8218Z" fill="white"/>
<path d="M120.231 10.9801L118.211 15.1466C117.588 14.8045 116.966 14.5247 116.127 14.5247C114.137 14.5247 113.142 16.9499 112.987 19.0024V27.5837H108.54V10.4827H111.96L112.738 12.8145C113.546 11.2599 114.821 9.98511 116.811 9.98511C118.335 9.98511 119.641 10.6383 120.231 10.9801Z" fill="white"/>
<path d="M134.005 19.0334C134.005 16.0795 132.326 14.0275 129.559 14.0275C126.792 14.0275 125.081 16.0795 125.081 19.0334C125.081 21.9873 126.792 24.0393 129.559 24.0393C132.295 24.0393 134.005 22.0184 134.005 19.0334ZM138.42 10.4829V27.5839H134.969L134.192 25.0654C133.166 26.8067 131.393 28.0815 128.533 28.0815C123.62 28.0815 120.511 24.4124 120.511 19.0645C120.511 13.6852 123.651 9.98528 128.44 9.98528C131.082 9.98528 132.917 11.1667 134.068 13.0011V10.4829H138.42Z" fill="white"/>
<path d="M158 17.0744V27.5837H153.305L153.336 17.8204C153.336 15.6131 152.683 14.2758 150.724 14.2758C149.387 14.2758 147.863 15.3022 146.496 17.0744V27.5837H141.831V10.4827H145.47L146.247 12.8456C147.46 11.4152 149.294 10.0162 151.813 10.0162C155.139 10.0162 158 11.7262 158 17.0744Z" fill="white"/>
</svg>
