<svg width="131" height="24" viewBox="0 0 131 24" fill="none" xmlns="http://www.w3.org/2000/svg">
<path fill-rule="evenodd" clip-rule="evenodd" d="M26.6907 22.0878C26.5861 22.1445 26.48 22.199 26.3727 22.2514C24.8225 23.2726 23.0236 23.8526 21.1689 23.9293C20.5792 23.9305 20.0109 23.7083 19.5785 23.3073C19.3538 23.1209 19.1737 22.8863 19.0518 22.621C18.9298 22.3557 18.869 22.0664 18.8738 21.7744C18.8742 21.4435 18.9457 21.1165 19.0835 20.8157L26.2745 3.54904C26.3748 3.35603 26.4336 3.14414 26.447 2.92703C26.447 2.59025 26.2601 2.41528 25.8957 2.41528C24.871 2.54466 23.9251 3.03247 23.2255 3.79234C22.3444 4.50601 21.6391 5.41263 21.1641 6.44219L13.8689 23.9269H8.90475L17.3613 3.55264C17.4618 3.34725 17.5208 3.12408 17.5351 2.89587C17.5445 2.83072 17.5386 2.76427 17.5179 2.7018C17.4971 2.63932 17.4621 2.58256 17.4155 2.53601C17.369 2.48946 17.3122 2.45442 17.2497 2.43367C17.1873 2.41291 17.1208 2.40703 17.0557 2.41647C16.0294 2.57208 15.0934 3.09196 14.419 3.88103C13.6055 4.58962 12.9518 5.46304 12.5014 6.44339L5.20623 23.9281H0L8.49009 3.55384C8.51718 3.47276 8.53015 3.38763 8.52843 3.30216C8.52075 3.16583 8.48329 3.03283 8.41869 2.91253C8.35409 2.79223 8.26391 2.68755 8.15451 2.60583C7.94886 2.40871 7.67916 2.29215 7.39467 2.27745H1.47294C0.925228 2.27745 0.651976 1.93588 0.651976 1.25874C0.651976 0.558819 0.956395 0.210059 1.57721 0.210059H9.89831C12.1563 0.210059 13.4926 0.63552 13.9073 1.48645C15.3277 0.569113 16.9737 0.0615033 18.664 0.0194985C19.4582 0.0164031 20.2502 0.102841 21.0251 0.277174C22.1696 0.516871 22.7509 0.924357 22.7761 1.47566C23.3714 0.950697 24.0665 0.55117 24.8198 0.300972C25.573 0.0507744 26.369 -0.0449573 27.1601 0.0194985H27.5329C28.4206 0.0128715 29.2948 0.238013 30.0689 0.672674C30.4598 0.840465 30.7956 1.11514 31.0375 1.46516C31.2794 1.81517 31.4176 2.22632 31.4363 2.65138C31.4321 2.96568 31.3632 3.27575 31.2338 3.56223L24.2826 20.2727C24.263 20.3332 24.2521 20.3962 24.2502 20.4597C24.2502 20.6335 24.3521 20.7138 24.5594 20.7138C25.3817 20.6268 26.1633 20.3243 26.827 19.841C26.9853 19.1191 27.2217 18.415 27.533 17.7413L28.0124 16.6171C28.6425 15.0303 29.5857 13.5866 30.7857 12.3721C31.3348 11.7665 31.9992 11.2765 32.7401 10.931C33.481 10.5855 34.2834 10.3913 35.1002 10.3598C35.5948 10.3332 36.0883 10.4296 36.5365 10.6404C36.9847 10.8512 37.3737 11.1699 37.6686 11.5679L37.9742 10.8368H41.1262L39.6221 14.4538C39.2785 15.2979 38.7972 16.4554 38.1817 17.9356L38.1777 17.9454L38.1706 17.9624C37.9713 18.4418 37.758 18.9548 37.5308 19.5019C37.4487 19.6846 37.4031 19.8817 37.3965 20.0819C37.3965 20.4019 37.5691 20.5613 37.9035 20.5613C38.5864 20.4834 39.2376 20.2465 39.8068 19.8741C39.9718 19.1435 40.2207 18.4328 40.5496 17.7563L41.6462 15.1196C42.1495 13.8776 42.9086 12.7554 43.8742 11.8262C44.7699 10.9154 45.9864 10.391 47.2635 10.3652H50.6469C52.1146 10.3652 52.8477 10.9745 52.8461 12.1929C52.8391 12.5118 52.8067 12.8296 52.749 13.1433L47.6411 15.1196L48.4596 13.1805C48.4819 13.1081 48.4951 13.0332 48.4992 12.9576C48.4992 12.6711 48.3038 12.5213 47.9119 12.5213C47.6929 12.5116 47.4768 12.5746 47.2973 12.7006C47.1178 12.8265 46.985 13.0083 46.9196 13.2176L44.0108 20.1689C43.8662 20.4894 43.7848 20.8349 43.7712 21.1864C43.7712 21.5459 43.9066 21.7413 44.1786 21.7413H45.1746C47.4309 21.7213 49.6234 20.9903 51.4403 19.6523C52.4083 19.0378 53.1983 18.1804 53.7318 17.1655L54.6282 18.4442L54.6271 18.4862C53.7782 20.158 52.4044 21.5052 50.7164 22.3214C49.2706 23.2574 47.6107 23.8109 45.8925 23.9297H43.287C41.2381 23.9297 40.041 23.3345 39.6958 22.1442C39.6274 22.1807 39.5585 22.2164 39.4891 22.2512C37.9383 23.2721 36.1391 23.8521 34.2841 23.9291C34.128 23.9432 33.9706 23.9255 33.8215 23.8773C33.6725 23.829 33.5346 23.7511 33.4164 23.6482C33.2982 23.5453 33.202 23.4196 33.1336 23.2786C33.0652 23.1376 33.0261 22.9842 33.0185 22.8277C32.6557 23.1964 32.2236 23.4898 31.747 23.6909C31.2704 23.8921 30.7588 23.997 30.2416 23.9998C28.1793 23.9998 26.9957 23.3625 26.6907 22.0878ZM102.326 22.2523C102.507 22.162 102.685 22.0654 102.859 21.9628C103.136 23.2714 104.346 23.9257 106.496 23.9257H109.102C110.821 23.8074 112.482 23.2544 113.928 22.3185C115.238 21.6864 116.357 20.7325 117.187 19.5547C118.739 18.2785 119.964 16.6338 120.74 14.7562C120.994 14.1413 121.253 13.8417 121.529 13.8417C121.729 13.8473 121.922 13.9157 122.08 14.0371C122.159 14.0854 122.224 14.1521 122.271 14.2315C122.318 14.3108 122.345 14.4004 122.35 14.4925C122.353 14.5556 122.34 14.6185 122.314 14.6759L119.923 20.3795C119.725 20.8445 119.619 21.3434 119.61 21.8488C119.61 23.2319 120.329 23.927 121.767 23.927C123.625 23.85 125.426 23.2701 126.98 22.2491C128.609 21.4238 129.938 20.108 130.779 18.4871L129.852 17.1675C129.385 18.0709 128.708 18.8483 127.876 19.4339C127.188 20.0841 126.31 20.4963 125.37 20.6096C125.023 20.6096 124.845 20.449 124.845 20.1302C124.854 19.9282 124.902 19.7299 124.988 19.5465L126.497 15.8923C126.564 15.7571 126.598 15.6073 126.594 15.4561C126.622 15.1475 126.563 14.8373 126.426 14.5597C126.288 14.2822 126.076 14.0482 125.814 13.8837L118.481 9.46484L114.022 20.093C112.341 21.1561 110.391 21.7309 108.392 21.7444H107.399C107.118 21.7444 106.979 21.5503 106.979 21.1907C106.995 20.8396 107.077 20.4945 107.219 20.1732L108.039 18.2305H111.469C112.184 18.2979 112.901 18.1309 113.512 17.7547C114.124 17.3785 114.596 16.8135 114.858 16.1451C115.469 14.8877 115.871 13.5394 116.05 12.1529C116.05 10.9664 115.323 10.3672 113.865 10.3672H110.471C109.193 10.3949 107.978 10.9215 107.084 11.8341C106.111 12.754 105.35 13.8735 104.851 15.1156L103.757 17.7523C103.469 18.3404 103.242 18.955 103.08 19.5862C102.356 20.2144 101.461 20.612 100.509 20.7266C100.278 20.7266 100.167 20.638 100.167 20.4642C100.171 20.4031 100.18 20.3424 100.196 20.2832L103.453 12.493H104.826L105.577 10.7408L104.204 10.7289L108.59 0.210938H103.621L99.2094 10.7229H97.9366L97.1924 12.487H98.4867L95.5651 19.4844C94.8887 20.0807 94.0456 20.4574 93.1479 20.5624C92.8063 20.5624 92.6361 20.409 92.6361 20.0938C92.6487 19.8881 92.6945 19.6857 92.7715 19.4945L94.5225 15.3705C94.9054 14.4813 95.1137 13.5268 95.1361 12.5589C95.1361 10.7795 94.3371 9.88987 92.7392 9.88987C92.0211 9.85061 91.3031 9.9673 90.6345 10.2319C89.9658 10.4965 89.3624 10.9028 88.8657 11.4227L85.7172 9.625L81.3916 20.0116C79.6866 21.1228 77.6942 21.724 75.6502 21.7366H74.6554C74.3834 21.7366 74.2443 21.5425 74.2443 21.1829C74.2565 20.8313 74.3379 20.4855 74.484 20.1654L75.2978 18.2227H78.7267C79.4421 18.2925 80.1607 18.1265 80.773 17.75C81.3854 17.3735 81.8578 16.8072 82.1184 16.1373C82.7311 14.8801 83.1359 13.5319 83.3169 12.1451C83.3169 10.9586 82.5918 10.3594 81.1225 10.3594H77.7331C76.4552 10.3887 75.239 10.9149 74.3426 11.8263C73.3712 12.7491 72.6108 13.8709 72.1134 15.115L71.0252 17.7516C70.6877 18.4415 70.4347 19.1677 70.2701 19.9144C68.4079 21.125 66.2276 21.7634 63.9998 21.7448C63.2639 21.7448 62.9044 21.5578 62.9044 21.1899C62.9419 20.8387 63.0336 20.4954 63.1764 20.1724L70.305 3.13707C70.48 2.70202 70.9498 2.48629 71.7061 2.48629C72.3677 2.48629 72.6996 2.64089 72.6996 2.96568C72.6976 3.01396 72.6845 3.06111 72.6613 3.10351L71.8439 5.07982L76.9471 3.10351C77.0077 2.77964 77.0417 2.45136 77.0489 2.12195C77.0489 0.923463 76.3299 0.324219 74.8917 0.324219H70.6526C67.8394 0.32342 65.6921 2.10118 64.2107 5.65749L59.1771 17.7622C58.6923 18.7965 58.4123 19.9149 58.3525 21.0557C58.3525 22.9672 59.7284 23.932 62.4633 23.932H65.0653C66.7873 23.8123 68.4509 23.2586 69.9012 22.3225C69.9962 22.276 70.0903 22.228 70.1833 22.1782C70.544 23.3428 71.7386 23.9251 73.7673 23.9251H76.3669C77.7018 23.8324 79.0016 23.4785 80.1939 22.8876L79.7607 23.9278H84.756L89.2072 13.2241C89.2798 12.9893 89.4254 12.7839 89.6228 12.6377C89.8203 12.4915 90.0593 12.4123 90.305 12.4115C90.6202 12.4115 90.7844 12.5517 90.7844 12.8178C90.7778 12.9448 90.7519 13.07 90.7077 13.1893L87.6983 20.3479C87.4898 20.822 87.3742 21.3318 87.358 21.8496C87.341 22.2277 87.441 22.6019 87.6443 22.9212C87.8476 23.2405 88.1443 23.4894 88.4941 23.6341C88.8054 23.8171 89.1579 23.9181 89.5188 23.9278C91.3733 23.8498 93.1719 23.2699 94.7227 22.2499C94.7987 22.2121 94.874 22.1733 94.9487 22.1334C94.9709 22.286 95.0093 22.4362 95.0634 22.5814C95.1637 22.8508 95.3162 23.0978 95.5121 23.3082C95.7199 23.5204 95.9707 23.6858 96.2477 23.7931C96.5247 23.9003 96.8215 23.9471 97.1181 23.9302C98.9738 23.8526 100.774 23.2727 102.326 22.2523ZM110.399 16.1834L111.663 13.1872C111.683 13.1128 111.696 13.0365 111.7 12.9595C111.7 12.6743 111.507 12.5245 111.117 12.5245C110.898 12.5143 110.681 12.577 110.502 12.7027C110.322 12.8285 110.189 13.0103 110.124 13.2196L108.859 16.1823L110.399 16.1834ZM35.4526 13.1834L32.4719 20.3456L32.466 20.3504C32.074 21.2792 31.6402 21.7466 31.1608 21.7466C30.8863 21.7466 30.7521 21.5669 30.7521 21.2313C30.7635 20.8641 30.8449 20.5025 30.9918 20.1658L33.9053 13.2182C33.9769 13.0063 34.1163 12.824 34.302 12.6994C34.4877 12.5748 34.7093 12.5149 34.9324 12.5291C35.3195 12.5291 35.5113 12.6717 35.5113 12.9629C35.5058 13.0395 35.4858 13.1143 35.4526 13.1834ZM77.6648 16.1828L78.9364 13.1866C78.9561 13.1122 78.9678 13.0358 78.9712 12.9589C78.9712 12.6737 78.7758 12.5238 78.3899 12.5238C78.1706 12.5133 77.9539 12.5758 77.7739 12.7016C77.5939 12.8274 77.4607 13.0094 77.3952 13.219L76.1236 16.1816L77.6648 16.1828Z" fill="#121212"></path>
</svg>